<?xml version="1.0" encoding="utf-8"?>
<!-- Generator: Adobe Illustrator 24.3.0, SVG Export Plug-In . SVG Version: 6.00 Build 0)  -->
<svg version="1.1" id="Calque_1" xmlns="http://www.w3.org/2000/svg" xmlns:xlink="http://www.w3.org/1999/xlink" x="0px" y="0px"
	 viewBox="0 0 159.6 78" style="enable-background:new 0 0 159.6 78;" xml:space="preserve">
<style type="text/css">
	.st0{filter:url(#Adobe_OpacityMaskFilter);}
	.st1{fill-rule:evenodd;clip-rule:evenodd;fill:#FFFFFF;}
	.st2{mask:url(#mask-2_2_);fill:#CD1719;}
	.st3{filter:url(#Adobe_OpacityMaskFilter_1_);}
	.st4{mask:url(#mask-4_2_);fill:#FFFFFF;}
	.st5{filter:url(#Adobe_OpacityMaskFilter_2_);}
	.st6{mask:url(#mask-6_2_);fill:#FFFFFF;}
	.st7{filter:url(#Adobe_OpacityMaskFilter_3_);}
	.st8{mask:url(#mask-8_2_);fill:#FFFFFF;}
	.st9{filter:url(#Adobe_OpacityMaskFilter_4_);}
	.st10{mask:url(#mask-10_2_);fill:#FFFFFF;}
	.st11{filter:url(#Adobe_OpacityMaskFilter_5_);}
	.st12{mask:url(#mask-12_2_);fill:#1D1D1B;}
	.st13{filter:url(#Adobe_OpacityMaskFilter_6_);}
	.st14{mask:url(#mask-14_2_);fill:#FFFFFF;}
	.st15{filter:url(#Adobe_OpacityMaskFilter_7_);}
	.st16{mask:url(#mask-16_2_);fill:#FFFFFF;}
	.st17{filter:url(#Adobe_OpacityMaskFilter_8_);}
	.st18{mask:url(#mask-18_2_);fill:#FFFFFF;}
</style>
<g id="Page-1">
	<g id="dimsum">
		<g id="Path-Clipped">
			<g id="path-1_1_">
			</g>
			<defs>
				<filter id="Adobe_OpacityMaskFilter" filterUnits="userSpaceOnUse" x="6.3" y="6" width="49.6" height="65.3">
					<feColorMatrix  type="matrix" values="1 0 0 0 0  0 1 0 0 0  0 0 1 0 0  0 0 0 1 0"/>
				</filter>
			</defs>
			<mask maskUnits="userSpaceOnUse" x="6.3" y="6" width="49.6" height="65.3" id="mask-2_2_">
				<g class="st0">
					<rect id="path-1_3_" x="3.6" y="6" class="st1" width="149.4" height="65.3"/>
				</g>
			</mask>
			<path id="Path" class="st2" d="M9.6,6C7.8,6,6.3,7.5,6.3,9.6v58.5c0,1.8,1.5,3.3,3.3,3.3h42.8c1.8,0,3.6-1.5,3.6-3.6V9.6
				C55.6,7.5,54.1,6,52.4,6H9.6z"/>
		</g>
		<g id="Shape-Clipped">
			<g id="path-3_1_">
			</g>
			<defs>
				<filter id="Adobe_OpacityMaskFilter_1_" filterUnits="userSpaceOnUse" x="8.5" y="19.3" width="13" height="16.7">
					<feColorMatrix  type="matrix" values="1 0 0 0 0  0 1 0 0 0  0 0 1 0 0  0 0 0 1 0"/>
				</filter>
			</defs>
			<mask maskUnits="userSpaceOnUse" x="8.5" y="19.3" width="13" height="16.7" id="mask-4_2_">
				<g class="st3">
					<rect id="path-3_3_" x="3.6" y="6" class="st1" width="149.4" height="65.3"/>
				</g>
			</mask>
			<path id="Shape" class="st4" d="M16.4,29.8c0,0.3-3,2.1-3,1.5c0-0.9-0.3-7.4-0.6-7.4c1.5,0,3.3,0.3,3.9,1.8
				C17,27.1,17.3,28.3,16.4,29.8 M18.2,20.3c-2.1-0.9-7.4-1.8-9.2,0.6c-0.9,0.9-0.3,3.9-0.3,5.3c0,2.1,0,4.2,0.3,6.2
				c0,0.3,0,0.6,0.3,0.9c0.3,1.5,1.2,2.4,2.7,2.7c1.8,0.3,4.5-0.3,5.9-1.2c1.5-1.2,3.9-4.5,3.6-8C21.5,22.9,20.6,21.2,18.2,20.3"/>
		</g>
		<g id="Path-Clipped_1_">
			<g id="path-5_1_">
			</g>
			<defs>
				<filter id="Adobe_OpacityMaskFilter_2_" filterUnits="userSpaceOnUse" x="25" y="17" width="5.6" height="4.2">
					<feColorMatrix  type="matrix" values="1 0 0 0 0  0 1 0 0 0  0 0 1 0 0  0 0 0 1 0"/>
				</filter>
			</defs>
			<mask maskUnits="userSpaceOnUse" x="25" y="17" width="5.6" height="4.2" id="mask-6_2_">
				<g class="st5">
					<rect id="path-5_3_" x="3.6" y="6" class="st1" width="149.4" height="65.3"/>
				</g>
			</mask>
			<path id="Path_1_" class="st6" d="M25,19.4c0-1.2,1.2-2.1,2.7-2.4c1.5,0,3,0.6,3,1.8c0,1.2-1.2,2.1-2.7,2.4
				C26.5,21.5,25.3,20.6,25,19.4"/>
		</g>
		<g id="Path-Clipped_2_">
			<g id="path-7_1_">
			</g>
			<defs>
				<filter id="Adobe_OpacityMaskFilter_3_" filterUnits="userSpaceOnUse" x="24" y="22.3" width="6.5" height="13.7">
					<feColorMatrix  type="matrix" values="1 0 0 0 0  0 1 0 0 0  0 0 1 0 0  0 0 0 1 0"/>
				</filter>
			</defs>
			<mask maskUnits="userSpaceOnUse" x="24" y="22.3" width="6.5" height="13.7" id="mask-8_2_">
				<g class="st7">
					<rect id="path-7_3_" x="3.6" y="6" class="st1" width="149.4" height="65.3"/>
				</g>
			</mask>
			<path id="Path_2_" class="st8" d="M26.2,22.4c0,0-1.8,0-2.1,2.4c-0.3,2.7,0,7.4,0,8.9c0,1.5,1.5,2.1,2.7,2.4
				c1.5,0,3.6-0.3,3.6-1.2c0.3-0.6,0-5,0-7.4c0-2.1,0-5.3-1.5-5C27.7,22.7,26.2,22.4,26.2,22.4"/>
		</g>
		<g id="Path-Clipped_3_">
			<g id="path-9_1_">
			</g>
			<defs>
				<filter id="Adobe_OpacityMaskFilter_4_" filterUnits="userSpaceOnUse" x="32.9" y="18.6" width="20.1" height="17.9">
					<feColorMatrix  type="matrix" values="1 0 0 0 0  0 1 0 0 0  0 0 1 0 0  0 0 0 1 0"/>
				</filter>
			</defs>
			<mask maskUnits="userSpaceOnUse" x="32.9" y="18.6" width="20.1" height="17.9" id="mask-10_2_">
				<g class="st9">
					<rect id="path-9_3_" x="3.6" y="6" class="st1" width="149.4" height="65.3"/>
				</g>
			</mask>
			<path id="Path_3_" class="st10" d="M34.2,36c-0.3-0.3-0.6-0.6-0.9-1.2c-0.9-3.9-0.3-8,0.6-11.9c0.3-1.2,1.2-3,2.4-3.9
				c1.8-1.5,3,0.6,3.3,2.4c0.3,0.9,0.9,4.7,2.7,3.9c2.4-0.9,1.5-5,3.9-5.9c1.8-0.6,2.1,2.1,2.4,3.3c0.6,1.8,1.2,3.9,2.1,5.6
				c0.9,1.8,2.1,3.3,2.4,5c0.3,1.8-0.9,2.7-2.7,2.7c-2.7-0.3-3-3-3.3-5c0-0.6-0.6-1.8-1.5-1.5c-1.5,0.6-1.8,3-2.4,4.2
				c-0.9,1.2-2.4,1.2-3,0c-0.6-0.9-0.6-2.1-1.2-3c-0.3-0.6-0.9-1.2-1.5-1.2s-1.2,0.6-1.5,1.2c-0.3,0.9,0,1.5,0.3,2.4s0.6,2.7,0,3.3
				C36,36.6,34.8,36.6,34.2,36"/>
		</g>
		<g id="Shape-Clipped_1_">
			<g id="path-11_1_">
			</g>
			<defs>
				<filter id="Adobe_OpacityMaskFilter_5_" filterUnits="userSpaceOnUse" x="59.9" y="15.6" width="94" height="37.8">
					<feColorMatrix  type="matrix" values="1 0 0 0 0  0 1 0 0 0  0 0 1 0 0  0 0 0 1 0"/>
				</filter>
			</defs>
			<mask maskUnits="userSpaceOnUse" x="59.9" y="15.6" width="94" height="37.8" id="mask-12_2_">
				<g class="st11">
					<rect id="path-11_3_" x="3.6" y="6" class="st1" width="149.4" height="65.3"/>
				</g>
			</mask>
			<path id="Shape_1_" class="st12" d="M139.7,39.3c-0.3-1.5,1.2-4.2,2.4-5.3c0,0,0.3,0,0.3,0.3C141.8,35.7,140.9,37.2,139.7,39.3
				 M102,40.8l-0.3-0.3c0.9-1.8,2.1-3.6,3.9-4.2l0.3,0.3C104.6,37.8,103.5,39.3,102,40.8 M66.6,49.4c-0.3,0.3-0.9,0.3-1.5,0.3
				c0-0.6-0.3-1.2,0-1.8c0.6-0.9,1.5-1.8,2.1-2.7C68.4,47.3,68.1,48.2,66.6,49.4 M152.2,35.4c-0.3,0-0.9,0.3-1.2,0.6
				c-0.3,0.6-0.6,1.5-0.6,2.1c-1.2,3.6-2.1,7.1-3.3,10.7c-0.3,0.6-1.2,1.5-1.5,1.5c-0.6-0.3-1.5-0.9-1.8-1.5c-1.2-2.4-2.1-4.5-3-6.8
				c1.2-0.9,2.7-1.8,3.9-3c1.5-1.5,2.1-3.3,1.8-5.3c-0.3-1.5-0.9-2.7-2.7-3.3c-1.8-0.6-3,0.3-3.9,1.5c-1.2,1.2-1.8,2.7-2.7,4.2
				c0,0-0.3,0-0.3-0.3c0.3-5.3,0.6-10.7,1.2-16c0.3-3,0.3-2.7-2.1-3.9c-1.2-0.6-2.1,0-2.1,1.2c-0.3,1.2-0.6,2.7-0.6,3.9
				c-0.3,3.9-1.2,7.7-1.2,11.6c0,3-0.6,5-3.3,6.8c-2.7,2.1-5.3,4.2-8.6,4.7c-2.1,0.3-2.4,0-1.8-2.1c1.2-3.3,3-5.9,5.9-7.7
				c0.3,0.3,0.9-0.3,0.9-0.6c0-1.8-3-3.3-4.8-2.4c-2.1,1.2-3.9,3-4.8,5c-1.8,3.9-3.6,7.4-5.6,11.3c-0.6,0.9-1.2,1.8-1.8,2.7
				c-0.3,0-0.3-0.3-0.6-0.3c0-0.9,0-1.5,0.3-2.4c0.3-1.8,0.9-3.3,1.2-5c0.3-1.8,0.9-4.2,0.3-5.6c-0.6-1.5-3-2.4-4.5-3.6
				c-0.6-0.6-1.5-0.6-2.1-0.6c-2.7,0.3-4.2,1.8-5.3,4.2c-1.2,2.4-2.1,4.7-3.3,7.1c-0.6,1.5-1.5,3-2.1,4.5c-0.3,0-0.3,0-0.6-0.3
				c0.6-3.9,1.2-8,1.8-11.9c0.3-2.4,0.6-4.7-0.9-7.1c-1.8-3-4.5-3-6.2,0c-0.9,1.5-1.8,3.3-2.7,5c0-0.3-0.3-0.3-0.3-0.6
				c-0.6-1.2-2.1-2.1-3.3-1.8c-1.2,0.3-1.5,1.2-1.5,2.4c0,0.9,0,1.8,0,3c0,0.3-0.3,0.9-0.6,1.2c-3,1.2-5.9,2.1-9.2,3.3
				c-0.9-1.2-2.1-2.1-3.3-3.3c-0.6-0.9-1.2-1.8-1.2-3c-0.6-3,3.6-6.8,6.2-7.1c1.8-0.3,2.7,0.6,2.1,2.4c-0.3,0.9-0.9,1.8-1.5,3
				c-0.3,0.3-0.3,0.9-0.6,1.5c0.6,0,1.2,0.3,1.8,0.3c1.5-0.6,3.3-3.6,3-5c-0.3-3-3.9-5.9-6.8-5.3c-4.5,0.6-6.8,3.3-8.3,7.1
				c-1.2,3.3,0,5.9,2.4,8c0.9,0.9,2.1,2.1,3,3c0.6,0.6,0.9,1.2,0,1.8c-0.9,0.6-1.5,1.8-2.1,2.7c-1.5,2.7-0.3,4.7,2.7,4.7
				c3.3,0,6.2-1.8,5.6-5.3c0-0.9-0.6-1.5-0.9-2.4c0-0.3,0-1.2,0.3-1.2c2.7-1.2,5-2.1,7.7-3.3c0.3,0.9,0.6,1.2,0.6,1.8
				c0.3,1.5,1.2,2.1,2.7,2.1s2.1-0.9,2.4-2.4c0.6-1.8,0.9-3.3,1.5-4.7c0.6-1.8,1.5-3.6,3-4.7c-0.3,3-0.6,5.9-0.9,8.6
				C87.7,44,87.4,47,88,50.2c0.3,1.2,0.6,2.7,2.1,3c1.2,0.6,2.4-0.3,3.3-1.2c0.9-0.9,1.5-1.8,2.1-2.7c0.9-1.5,1.5-3.3,2.4-5
				c2.7,2.4,4.8,0.9,6.5-0.9c0,2.1-0.3,3.9-0.3,5.6c0,1.8,1.2,3.6,2.7,4.2c1.8,0.6,3.3,0,4.5-1.8c1.5-2.1,2.7-4.5,3.9-6.8
				c0,0.3,0.3,0.3,0.3,0.6c0.9,2.4,3,3.6,5.9,2.4c2.4-0.9,4.8-2.4,7.1-3.9c1.5-0.9,2.7-2.1,4.2-3c0.6,2.7,1.2,5.3,2.1,7.7
				c0,0.6,0.9,1.2,1.5,1.2c0.9,0,1.8-0.6,2.1-1.2c0.3-0.3,0.3-1.2,0.6-2.1c0.9,1.5,1.5,3,2.7,4.2c2.4,3.6,7.1,3.3,8.9-0.6
				c1.5-3.3,2.4-7.1,3.3-10.7c0.3-0.9,0.3-1.8,0.3-2.4C153.1,36,152.5,35.4,152.2,35.4"/>
		</g>
		<g id="Path-Clipped_4_">
			<g id="path-13_1_">
			</g>
			<defs>
				<filter id="Adobe_OpacityMaskFilter_6_" filterUnits="userSpaceOnUse" x="38" y="41.3" width="20.4" height="19.5">
					<feColorMatrix  type="matrix" values="1 0 0 0 0  0 1 0 0 0  0 0 1 0 0  0 0 0 1 0"/>
				</filter>
			</defs>
			<mask maskUnits="userSpaceOnUse" x="38" y="41.3" width="20.4" height="19.5" id="mask-14_2_">
				<g class="st13">
					<rect id="path-13_3_" x="3.6" y="6" class="st1" width="149.4" height="65.3"/>
				</g>
			</mask>
			<path id="Path_4_" class="st14" d="M39.3,60.3c-0.3-0.3-0.6-0.9-0.9-1.2c-0.9-4.2-0.3-8.6,0.6-12.8c0.3-1.5,1.2-3.3,2.4-4.5
				c1.8-1.8,3,0.6,3.6,2.7c0.3,1.2,0.9,5,2.7,4.2c2.4-1.2,1.5-5.6,3.9-6.5c1.8-0.6,2.1,2.4,2.4,3.6c0.6,2.1,1.2,4.2,2.1,5.9
				c0.9,1.8,2.1,3.6,2.4,5.6c0.3,1.8-0.9,3-2.7,2.7c-2.7-0.3-3-3-3.3-5.3c0-0.6-0.6-2.1-1.5-1.5c-1.5,0.6-1.8,3.3-2.4,4.5
				c-0.9,1.2-2.4,1.2-3,0c-0.6-0.9-0.6-2.1-1.2-3.3c-0.3-0.6-0.9-1.2-1.5-1.2c-0.6,0-1.2,0.6-1.5,1.2c-0.3,0.9,0,1.8,0.3,2.7
				c0.3,0.9,0.6,2.7,0,3.6C41.1,60.9,40.2,60.9,39.3,60.3"/>
		</g>
		<g id="Path-Clipped_5_">
			<g id="path-15_1_">
			</g>
			<defs>
				<filter id="Adobe_OpacityMaskFilter_7_" filterUnits="userSpaceOnUse" x="3.6" y="40.9" width="14.2" height="19.1">
					<feColorMatrix  type="matrix" values="1 0 0 0 0  0 1 0 0 0  0 0 1 0 0  0 0 0 1 0"/>
				</filter>
			</defs>
			<mask maskUnits="userSpaceOnUse" x="3.6" y="40.9" width="14.2" height="19.1" id="mask-16_2_">
				<g class="st15">
					<rect id="path-15_3_" x="3.6" y="6" class="st1" width="149.4" height="65.3"/>
				</g>
			</mask>
			<path id="Path_5_" class="st16" d="M3.6,55c0-1.5,1.8-1.2,2.7-0.9c1.2,0.6,2.4,1.2,3.6,1.2c0.3,0,0.9,0,0.9-0.3
				c0.3-0.3-0.3-0.9-0.3-1.2c-1.8-2.4-5.3-3.3-5.6-6.5C4.2,44,6.6,41.3,9.6,41c5.9-0.6,6.8,1.5,6.8,2.1s0,2.7-0.9,2.4
				c-0.9-0.3-2.1-1.2-3-1.2s-1.5,0.6-1.5,1.8s1.2,1.5,1.8,1.8c1.2,0.6,2.4,1.2,3.6,2.4c2.1,2.1,1.8,5.9,0,7.7
				c-2.1,2.1-5,2.4-7.7,1.8c-1.2-0.3-2.4-0.9-3.6-1.8c-0.6-0.3-0.9-0.9-1.2-1.5C3.9,56.2,3.6,55.6,3.6,55"/>
		</g>
		<g id="Path-Clipped_6_">
			<g id="path-17_1_">
			</g>
			<defs>
				<filter id="Adobe_OpacityMaskFilter_8_" filterUnits="userSpaceOnUse" x="20" y="41" width="16.6" height="19.3">
					<feColorMatrix  type="matrix" values="1 0 0 0 0  0 1 0 0 0  0 0 1 0 0  0 0 0 1 0"/>
				</filter>
			</defs>
			<mask maskUnits="userSpaceOnUse" x="20" y="41" width="16.6" height="19.3" id="mask-18_2_">
				<g class="st17">
					<rect id="path-17_3_" x="3.6" y="6" class="st1" width="149.4" height="65.3"/>
				</g>
			</mask>
			<path id="Path_6_" class="st18" d="M23,41.9c0.3-0.3,0.9-0.6,1.2-0.9c0.9-0.3,4.2,0.9,3.9,2.4c-0.3,1.2-1.2,2.4-1.8,3.3
				c-0.9,1.5-1.5,5.3-0.3,6.8c1.5,2.1,4.2-0.9,4.8-2.7c0.6-1.8,1.2-3.6,1.2-5.3c0-1.2-0.3-3.3,0.6-4.2c0.6-0.6,4.2-0.6,4.2,0.6
				c0,5.9-1.5,16.3-8.3,18.1c-3.3,0.9-6.5-0.9-7.7-4.2c-1.5-3.9,0.3-8.9,0.9-10.4C21.8,44.3,22.4,42.8,23,41.9"/>
		</g>
	</g>
</g>
</svg>
