<?xml version="1.0" encoding="utf-8"?>
<!-- Generator: Adobe Illustrator 24.3.0, SVG Export Plug-In . SVG Version: 6.00 Build 0)  -->
<svg version="1.1" id="Calque_1" xmlns="http://www.w3.org/2000/svg" xmlns:xlink="http://www.w3.org/1999/xlink" x="0px" y="0px"
	 viewBox="0 0 192.4 75.6" style="enable-background:new 0 0 192.4 75.6;" xml:space="preserve">
<style type="text/css">
	.st0{fill:#CD1719;}
	.st1{fill:#1D1D1B;}
</style>
<g id="Page-1">
	<g id="dimsum">
		<g>
			<g id="Shape-Clipped">
				<g id="path-3_1_">
				</g>
				<path id="Shape" class="st0" d="M16.3,28.9c0,0.4-3.7,2.8-3.7,2c0-1.1-0.4-9.7-0.9-9.7c1.9,0,4.2,0.4,4.9,2.4
					C17,25.2,17.4,26.8,16.3,28.9 M18.6,16.4C16,15.3,9.3,14,7,17.3c-1.1,1.1-0.4,5.1-0.4,7c0,2.8,0,5.5,0.4,8.3
					c0,0.4,0,0.9,0.4,1.1c0.4,2,1.4,3.1,3.3,3.5c2.3,0.4,5.6-0.4,7.4-1.5c1.9-1.5,4.9-5.9,4.6-10.6C22.6,19.7,21.6,17.5,18.6,16.4"
					/>
			</g>
			<g id="Path-Clipped_1_">
				<g id="path-5_1_">
				</g>
				<path id="Path_1_" class="st0" d="M27,15.1c0-1.5,1.4-2.8,3.3-3.1c1.9,0,3.7,0.9,3.7,2.4s-1.4,2.8-3.3,3.1
					C28.9,17.9,27.5,16.8,27,15.1"/>
			</g>
			<g id="Path-Clipped_2_">
				<g id="path-7_1_">
				</g>
				<path id="Path_2_" class="st0" d="M28.6,19c0,0-2.3,0-2.6,3.1c-0.4,3.5,0,9.7,0,11.7s1.9,2.8,3.3,3.1c1.9,0,4.6-0.4,4.6-1.5
					c0.4-0.9,0-6.6,0-9.7c0-2.8,0-7-1.9-6.6C30.5,19.5,28.6,19,28.6,19"/>
			</g>
			<g id="Path-Clipped_3_">
				<g id="path-9_1_">
				</g>
				<path id="Path_3_" class="st0" d="M38.6,37.1c-0.4-0.4-0.9-0.9-1.1-1.5C36.4,30.5,37.1,25,38.4,20c0.4-1.5,1.4-3.9,3-5.1
					c2.3-2,3.7,0.9,4.2,3.1c0.4,1.1,1.1,6.2,3.3,5.1c3-1.1,1.9-6.6,4.9-7.7c2.3-0.9,2.6,2.8,3,4.4c0.9,2.4,1.4,5.1,2.6,7.3
					c1.1,2.4,2.6,4.4,3,6.6c0.4,2.4-1.1,3.5-3.3,3.5c-3.3-0.4-3.7-3.9-4.2-6.6c0-0.9-0.9-2.4-1.9-2c-1.9,0.9-2.3,3.9-3,5.5
					c-1.1,1.5-3,1.5-3.7,0c-0.9-1.1-0.9-2.8-1.4-3.9c-0.4-0.9-1.1-1.5-1.9-1.5c-0.9,0-1.4,0.9-1.9,1.5c-0.4,1.1,0,2,0.4,3.1
					s0.9,3.5,0,4.4C40.8,37.7,39.4,37.7,38.6,37.1"/>
			</g>
		</g>
		<g id="Shape-Clipped_1_">
			<g id="path-11_1_">
			</g>
			<path id="Shape_1_" class="st1" d="M158.4,39.6c-0.3-1.7,1.2-4.7,2.6-6c0,0,0.3,0,0.3,0.3C160.5,35.5,159.6,37.3,158.4,39.6
				 M117.5,41.2l-0.5-0.3c0.9-2,2.3-4.1,4.2-4.7l0.3,0.3C120.4,37.9,119.2,39.6,117.5,41.2 M79.2,51.1c-0.3,0.3-0.9,0.3-1.7,0.3
				c0-0.8-0.3-1.3,0-2c0.8-0.9,1.7-2,2.3-3C81.2,48.6,80.9,49.7,79.2,51.1 M172,35.2c-0.3,0-0.9,0.3-1.2,0.8
				c-0.3,0.8-0.8,1.7-0.8,2.4c-1.2,4.1-2.3,8-3.6,12.1c-0.3,0.8-1.2,1.7-1.7,1.7c-0.8-0.3-1.7-0.9-2-1.7c-1.2-2.7-2.3-5-3.2-7.7
				c1.2-0.9,2.9-2,4.2-3.3c1.7-1.7,2.3-3.8,2-6c-0.3-1.7-0.9-3-2.9-3.8s-3.2,0.3-4.2,1.7c-1.2,1.3-2,3-2.9,4.7c0,0-0.3,0-0.3-0.3
				c0.3-6,0.8-12.1,1.2-18.1c0.3-3.3,0.3-3-2.3-4.4c-1.2-0.8-2.3,0-2.3,1.3c-0.3,1.3-0.8,3-0.8,4.4c-0.3,4.4-1.2,8.7-1.2,13.1
				c0,3.3-0.8,5.7-3.6,7.7c-2.9,2.4-5.7,4.7-9.2,5.4c-2.3,0.3-2.6,0-2-2.4c1.2-3.8,3.2-6.6,6.3-8.7c0.3,0.3,0.9-0.3,0.9-0.8
				c0-2-3.2-3.8-5.3-2.7c-2.3,1.3-4.2,3.3-5.3,5.7c-2,4.4-3.9,8.4-6,12.8c-0.8,0.9-1.2,2-2,3c-0.3,0-0.3-0.3-0.8-0.3
				c0-0.9,0-1.7,0.3-2.7c0.3-2,0.9-3.8,1.2-5.7c0.3-2,0.9-4.7,0.3-6.3c-0.8-1.7-3.2-2.7-4.8-4.1c-0.6-0.9-1.5-0.9-2.3-0.9
				c-2.9,0.3-4.5,2-5.7,4.7c-1.2,2.7-2.3,5.4-3.6,8c-0.8,1.7-1.7,3.3-2.3,5c-0.3,0-0.3,0-0.8-0.3c0.8-4.4,1.2-9.1,2-13.4
				c0.3-2.7,0.8-5.4-0.9-8c-2-3.3-4.8-3.3-6.8,0c-0.9,1.7-2,3.8-2.9,5.7c0-0.3-0.3-0.3-0.3-0.8c-0.8-1.3-2.3-2.4-3.6-2
				c-1.2,0.3-1.7,1.3-1.7,2.7c0,0.9,0,2,0,3.3c0,0.3-0.3,0.9-0.8,1.3c-3.2,1.3-6.3,2.4-10,3.8c-0.9-1.3-2.3-2.4-3.6-3.8
				c-0.3-0.5-0.8-1.6-0.8-2.8c-0.8-3.3,3.9-7.7,6.8-8c2-0.3,2.9,0.8,2.3,2.7c-0.3,0.9-0.9,2-1.7,3.3C83,34,83,34.6,82.7,35.2
				c0.8,0,1.2,0.3,2,0.3c1.7-0.8,3.6-4.1,3.2-5.7c-0.3-3.3-4.2-6.6-7.4-6c-4.8,0.8-7.4,3.8-9,8c-1.2,3.8,0,6.6,2.6,9.1
				c0.9,0.9,2.3,2.4,3.2,3.3c0.8,0.8,0.9,1.3,0,2c-0.9,0.8-1.7,2-2.3,3c-1.7,3-0.3,5.4,2.9,5.4c3.6,0,6.8-2,6-6
				c0-0.9-0.8-1.7-0.9-2.7c0-0.3,0-1.3,0.3-1.3c2.9-1.3,5.4-2.4,8.3-3.8c0.3,0.9,0.8,1.3,0.8,2c0.3,1.7,1.2,2.4,2.9,2.4
				s2.3-0.9,2.6-2.7c0.8-2,0.9-3.8,1.7-5.4c0.8-2,1.7-4.1,3.2-5.4c-0.3,3.3-0.8,6.6-0.9,9.6c-0.3,3.3-0.8,6.6,0,10.2
				c0.3,1.3,0.8,3,2.3,3.3c1.2,0.8,2.6-0.3,3.6-1.3c0.9-0.9,1.7-2,2.3-3c0.9-1.7,1.7-3.8,2.6-5.7c2.9,2.7,5.3,0.9,7.1-0.9
				c0,2.4-0.3,4.4-0.3,6.3c0,2,1.2,4.1,2.9,4.7c2,0.8,3.6,0,4.8-2c1.7-2.4,2.9-5,4.2-7.7c0,0.3,0.3,0.3,0.3,0.8
				c0.9,2.7,3.2,4.1,6.3,2.7c2.6-0.9,5.3-2.7,7.7-4.4c1.7-0.9,2.9-2.4,4.5-3.3c0.8,3,1.2,6,2.3,8.7c0,0.8,0.9,1.3,1.7,1.3
				c0.9,0,2-0.8,2.3-1.3c0.3-0.3,0.3-1.3,0.8-2.4c0.9,1.7,1.7,3.3,2.9,4.7c2.6,4.1,7.7,3.8,9.7-0.8c1.7-3.8,2.6-8,3.6-12.1
				c0.3-0.9,0.3-2,0.3-2.7C172.9,36,172.1,35.2,172,35.2"/>
		</g>
		<g>
			<g id="Path-Clipped_4_">
				<g id="path-13_1_">
				</g>
				<path id="Path_4_" class="st0" d="M47.1,66.2c-0.3-0.3-0.8-0.9-0.9-1.3c-0.9-4.7-0.3-9.6,0.8-14.5c0.3-1.7,1.2-3.8,2.6-5
					c2-2,3.2,0.8,3.9,3c0.3,1.3,0.9,5.7,2.9,4.7c2.6-1.3,1.7-6.3,4.2-7.4c2-0.8,2.3,2.7,2.6,4.1c0.8,2.4,1.2,4.7,2.3,6.6
					c0.9,2,2.3,4.1,2.6,6.3c0.3,2-0.9,3.3-2.9,3c-2.9-0.3-3.2-3.3-3.6-6c0-0.8-0.8-2.4-1.7-1.7c-1.7,0.8-2,3.8-2.6,5
					c-0.9,1.3-2.6,1.3-3.2,0c-0.8-0.9-0.8-2.4-1.2-3.8c-0.3-0.8-0.9-1.3-1.7-1.3s-1.2,0.8-1.7,1.3c-0.3,0.9,0,2,0.3,3
					c0.3,0.9,0.8,3,0,4.1C49,66.8,48,66.8,47.1,66.2"/>
			</g>
			<g id="Path-Clipped_5_">
				<g id="path-15_1_">
				</g>
				<path id="Path_5_" class="st0" d="M8.5,60.1c0-1.7,2-1.3,2.9-0.9c1.2,0.8,2.6,1.3,3.9,1.3c0.3,0,0.9,0,0.9-0.3
					c0.5-0.3-0.3-0.9-0.3-1.3c-2-2.7-5.7-3.8-6-7.4c-0.8-3.8,1.8-6.8,5.1-7.1c6.3-0.8,7.4,1.7,7.4,2.4c0,0.6,0,3-0.9,2.7
					s-2.3-1.3-3.2-1.3c-0.9,0-1.8,0.8-1.8,2s1.2,1.7,2,2c1.2,0.8,2.6,1.3,3.9,2.7c2.3,2.4,2,6.6,0,8.7c-2.3,2.4-5.4,2.7-8.3,2
					c-1.2-0.3-2.6-0.9-3.9-2c-0.8-0.3-0.9-0.9-1.2-1.7C8.8,61.5,8.5,60.8,8.5,60.1"/>
			</g>
			<g id="Path-Clipped_6_">
				<g id="path-17_1_">
				</g>
				<path id="Path_6_" class="st0" d="M29.4,45.4c0.3-0.3,0.9-0.8,1.2-0.9c0.9-0.3,4.5,0.9,4.2,2.7c-0.3,1.3-1.2,2.7-2,3.8
					c-0.9,1.7-1.7,6-0.3,7.7c1.7,2.4,4.5-0.9,5.3-3c0.8-2,1.2-4.1,1.2-6c0-1.3-0.3-3.8,0.8-4.7c0.8-0.8,4.5-0.8,4.5,0.8
					c0,6.6-1.7,18.4-9,20.5c-3.6,0.9-7.1-0.9-8.3-4.7c-1.7-4.4,0.3-10.1,0.9-11.7C28.1,48.1,28.8,46.3,29.4,45.4"/>
			</g>
		</g>
	</g>
</g>
</svg>
